<svg width="200" height="200" viewBox="0 0 200 200" fill="none" xmlns="http://www.w3.org/2000/svg">
<g id="icons8-linkedin 1">
<path id="Vector" d="M100 26C80.374 26 61.5518 33.7964 47.6741 47.6741C33.7964 61.5518 26 80.374 26 100C26 119.626 33.7964 138.448 47.6741 152.326C61.5518 166.204 80.374 174 100 174C119.626 174 138.448 166.204 152.326 152.326C166.204 138.448 174 119.626 174 100C174 80.374 166.204 61.5518 152.326 47.6741C138.448 33.7964 119.626 26 100 26Z" fill="#A3A3CD"/>
<g id="Group">
<path id="Vector_2" d="M70 144.6C62 144.6 55.4 138 55.4 130V70C55.4 62 62 55.4 70 55.4H130C138 55.4 144.6 62 144.6 70V130C144.6 138 138 144.6 130 144.6H70Z" fill="#127AD8"/>
<path id="Vector_3" d="M130 56.8C137.2 56.8 143.2 62.8 143.2 70V130C143.2 137.2 137.2 143.2 130 143.2H70C62.8 143.2 56.8 137.2 56.8 130V70C56.8 62.8 62.8 56.8 70 56.8H130ZM130 54H70C61.2 54 54 61.2 54 70V130C54 138.8 61.2 146 70 146H130C138.8 146 146 138.8 146 130V70C146 61.2 138.8 54 130 54Z" fill="#472B29"/>
</g>
<g id="Group_2">
<path id="Vector_4" d="M127.2 137H73C67.6 137 63.4 132.6 63.4 127.4V72.6C63.4 67.2 67.8 63 73 63H127.2C132.6 63 136.8 67.4 136.8 72.6V127.2C136.8 132.6 132.6 137 127.2 137Z" fill="#FDFCEE"/>
</g>
<g id="Group_3">
<path id="Vector_5" d="M137 94.8C136.4 94.8 136 94.4 136 93.8V86C136 85.4 136.4 85 137 85C137.6 85 138 85.4 138 86V93.8C138 94.4 137.6 94.8 137 94.8Z" fill="#472B29"/>
</g>
<g id="Group_4">
<path id="Vector_6" d="M137 81C136.4 81 136 80.6 136 80V76C136 75.4 136.4 75 137 75C137.6 75 138 75.4 138 76V80C138 80.6 137.6 81 137 81Z" fill="#472B29"/>
</g>
<g id="Group_5">
<path id="Vector_7" d="M128 138H72C66.4 138 62 133.6 62 128V72C62 66.4 66.4 62 72 62H122.8C123.4 62 123.8 62.4 123.8 63C123.8 63.6 123.4 64 122.8 64H72C67.6 64 64 67.6 64 72V128C64 132.4 67.6 136 72 136H128C132.4 136 136 132.4 136 128V99.2C136 98.6 136.4 98.2 137 98.2C137.6 98.2 138 98.6 138 99.2V128C138 133.6 133.6 138 128 138Z" fill="#472B29"/>
</g>
<g id="Group_6">
<path id="Vector_8" d="M121 103.2V117H112.8L112.6 103.2C112.6 99.8 111 97.2 107.8 97.2C105.4 97.2 104 98.8 103.4 100.4C103.2 101 103.2 101.8 103.2 102.4V116.8H94.8C94.8 116.8 95 93.4 94.8 91H103.2V95C104.4 93 106.4 90.8 111 90.8C116.8 91 121 94.6 121 103.2Z" fill="#127AD8"/>
<path id="Vector_9" d="M121 118H112.8C112.2 118 111.8 117.6 111.8 117L111.6 103.2C111.6 101.8 111.2 98.2 107.8 98.2C105.6 98.2 104.6 100 104.2 100.8C104.2 101 104 101.6 104 102.6V117C104 117.6 103.6 118 103 118H94.6C94.4 118 94 117.8 93.8 117.8C93.6 117.6 93.6 117.4 93.6 117C93.6 116.8 93.8 93.6 93.6 91.2C93.6 91 93.6 90.6 93.8 90.4C94 90.2 94.2 90 94.6 90H103C103.6 90 104 90.4 104 91V92.2C105.8 90.6 108 89.8 110.8 89.8C114 89.8 116.4 90.8 118.4 92.6C120.6 94.8 121.8 98.4 121.8 103V116.8C122 117.6 121.6 118 121 118ZM113.8 116H120V103.2C120 99.2 119 96.2 117.2 94.2C115.8 92.8 113.6 92 111.2 92C107 92 105.2 94 104.2 95.6C103.8 96.4 102.8 96.4 102.4 95.8C102.2 95.6 102.2 95.2 102.4 95V92.2H96C96 96.6 96 112 96 116H102.4V102.6C102.4 101.6 102.6 100.8 102.8 100.2C103.8 97.8 105.8 96.4 108.2 96.4C111.8 96.4 114 99 114 103.4L113.8 116Z" fill="#472B29"/>
</g>
<g id="Group_7">
<path id="Vector_10" d="M84.8 79.6C82.4 79.6 80.8 81.2 80.8 83.6C80.8 85.8 82.4 87.6 84.8 87.6C87.4 87.6 88.8 85.8 88.8 83.6C88.8 81.2 87.2 79.6 84.8 79.6Z" fill="#127AD8"/>
<path id="Vector_11" d="M84.8 88.4C81.8 88.4 79.8 86.4 79.8 83.4C79.8 80.4 82 78.4 84.8 78.4C87.6 78.4 89.8 80.4 89.8 83.2C89.8 86.4 87.6 88.4 84.8 88.4ZM84.8 80.6C83 80.6 81.8 81.8 81.8 83.6C81.8 85.4 83 86.6 84.8 86.6C86.6 86.6 88 85.4 88 83.6C87.8 81.8 86.6 80.6 84.8 80.6Z" fill="#472B29"/>
</g>
<g id="Group_8">
<path id="Vector_12" d="M80.8 91.2H89.2V117H80.8V91.2Z" fill="#127AD8"/>
<path id="Vector_13" d="M89.2 118H80.8C80.2 118 79.8 117.6 79.8 117V91.2C79.8 90.6 80.2 90.2 80.8 90.2H89.2C89.8 90.2 90.2 90.6 90.2 91.2V117C90.2 117.6 89.8 118 89.2 118ZM81.8 116H88.2V92.2H81.8V116Z" fill="#472B29"/>
</g>
<g id="circulo11">
<path id="Vector_14" d="M26 54C24.9391 54 23.9217 54.4214 23.1716 55.1716C22.4214 55.9217 22 56.9391 22 58C22 59.0609 22.4214 60.0783 23.1716 60.8284C23.9217 61.5786 24.9391 62 26 62C27.0609 62 28.0783 61.5786 28.8284 60.8284C29.5786 60.0783 30 59.0609 30 58C30 56.9391 29.5786 55.9217 28.8284 55.1716C28.0783 54.4214 27.0609 54 26 54Z" fill="#36C5F0"/>
</g>
<g id="circulo3">
<path id="Vector_15" d="M154 24C153.47 24 152.961 24.2107 152.586 24.5858C152.211 24.9609 152 25.4696 152 26C152 26.5304 152.211 27.0391 152.586 27.4142C152.961 27.7893 153.47 28 154 28C154.53 28 155.039 27.7893 155.414 27.4142C155.789 27.0391 156 26.5304 156 26C156 25.4696 155.789 24.9609 155.414 24.5858C155.039 24.2107 154.53 24 154 24Z" fill="#36C5F0"/>
</g>
<g id="circulo5">
<path id="Vector_16" d="M166 161C165.47 161 164.961 161.211 164.586 161.586C164.211 161.961 164 162.47 164 163C164 163.53 164.211 164.039 164.586 164.414C164.961 164.789 165.47 165 166 165C166.53 165 167.039 164.789 167.414 164.414C167.789 164.039 168 163.53 168 163C168 162.47 167.789 161.961 167.414 161.586C167.039 161.211 166.53 161 166 161Z" fill="#36C5F0"/>
</g>
<g id="circulo4">
<g id="Group 3">
<g id="Group 2">
<g id="Group 1">
<g id="circulo1">
<path id="Vector_17" d="M26 134C23.8783 134 21.8434 134.843 20.3431 136.343C18.8428 137.843 18 139.878 18 142C18 144.122 18.8428 146.157 20.3431 147.657C21.8434 149.157 23.8783 150 26 150C28.1217 150 30.1566 149.157 31.6569 147.657C33.1572 146.157 34 144.122 34 142C34 139.878 33.1572 137.843 31.6569 136.343C30.1566 134.843 28.1217 134 26 134Z" fill="#36C5F0"/>
</g>
</g>
</g>
</g>
</g>
<g id="circulo2">
<path id="Vector_18" d="M174 44C172.939 44 171.922 44.4214 171.172 45.1716C170.421 45.9217 170 46.9391 170 48C170 49.0609 170.421 50.0783 171.172 50.8284C171.922 51.5786 172.939 52 174 52C175.061 52 176.078 51.5786 176.828 50.8284C177.579 50.0783 178 49.0609 178 48C178 46.9391 177.579 45.9217 176.828 45.1716C176.078 44.4214 175.061 44 174 44Z" fill="#EE3E54"/>
</g>
<g id="circulo2_2">
<path id="Vector_19" d="M174 44C172.939 44 171.922 44.4214 171.172 45.1716C170.421 45.9217 170 46.9391 170 48C170 49.0609 170.421 50.0783 171.172 50.8284C171.922 51.5786 172.939 52 174 52C175.061 52 176.078 51.5786 176.828 50.8284C177.579 50.0783 178 49.0609 178 48C178 46.9391 177.579 45.9217 176.828 45.1716C176.078 44.4214 175.061 44 174 44Z" fill="#36C5F0"/>
</g>
<g id="circulo6">
<path id="Vector_20" d="M50 170C48.9391 170 47.9217 170.421 47.1716 171.172C46.4214 171.922 46 172.939 46 174C46 175.061 46.4214 176.078 47.1716 176.828C47.9217 177.579 48.9391 178 50 178C51.0609 178 52.0783 177.579 52.8284 176.828C53.5786 176.078 54 175.061 54 174C54 172.939 53.5786 171.922 52.8284 171.172C52.0783 170.421 51.0609 170 50 170Z" fill="#36C5F0"/>
</g>
<g id="circulo7">
<path id="Vector_21" d="M37 102C35.6739 102 34.4021 102.527 33.4645 103.464C32.5268 104.402 32 105.674 32 107C32 108.326 32.5268 109.598 33.4645 110.536C34.4021 111.473 35.6739 112 37 112C38.3261 112 39.5979 111.473 40.5355 110.536C41.4732 109.598 42 108.326 42 107C42 105.674 41.4732 104.402 40.5355 103.464C39.5979 102.527 38.3261 102 37 102Z" fill="#36C5F0"/>
</g>
<g id="circulo8">
<g id="Group 5">
<g id="Group 4">
<path id="Vector_22" d="M156 122C154.674 122 153.402 122.527 152.464 123.464C151.527 124.402 151 125.674 151 127C151 128.326 151.527 129.598 152.464 130.536C153.402 131.473 154.674 132 156 132C157.326 132 158.598 131.473 159.536 130.536C160.473 129.598 161 128.326 161 127C161 125.674 160.473 124.402 159.536 123.464C158.598 122.527 157.326 122 156 122Z" fill="#36C5F0"/>
</g>
</g>
</g>
<g id="circulo10">
<path id="Vector_23" d="M42 132C41.4696 132 40.9609 132.211 40.5858 132.586C40.2107 132.961 40 133.47 40 134C40 134.53 40.2107 135.039 40.5858 135.414C40.9609 135.789 41.4696 136 42 136C42.5304 136 43.0391 135.789 43.4142 135.414C43.7893 135.039 44 134.53 44 134C44 133.47 43.7893 132.961 43.4142 132.586C43.0391 132.211 42.5304 132 42 132Z" fill="#36C5F0"/>
</g>
<g id="circulo9">
<path id="Vector_24" d="M160 66C159.47 66 158.961 66.2107 158.586 66.5858C158.211 66.9609 158 67.4696 158 68C158 68.5304 158.211 69.0391 158.586 69.4142C158.961 69.7893 159.47 70 160 70C160.53 70 161.039 69.7893 161.414 69.4142C161.789 69.0391 162 68.5304 162 68C162 67.4696 161.789 66.9609 161.414 66.5858C161.039 66.2107 160.53 66 160 66Z" fill="white"/>
</g>
<g id="grupo12">
<g id="circulo1_2">
<path id="Vector_25" d="M93 44C91.1435 44 89.363 44.7375 88.0502 46.0503C86.7375 47.363 86 49.1435 86 51C86 52.8565 86.7375 54.637 88.0502 55.9497C89.363 57.2625 91.1435 58 93 58C94.8565 58 96.637 57.2625 97.9498 55.9497C99.2625 54.637 100 52.8565 100 51C100 49.1435 99.2625 47.363 97.9498 46.0503C96.637 44.7375 94.8565 44 93 44Z" fill="#36C5F0"/>
</g>
</g>
<g id="grupo13">
<g id="grupo12_2">
<g id="circulo1_3">
<path id="Vector_26" d="M158 91C156.674 91 155.402 91.5268 154.464 92.4645C153.527 93.4021 153 94.6739 153 96C153 97.3261 153.527 98.5979 154.464 99.5355C155.402 100.473 156.674 101 158 101C159.326 101 160.598 100.473 161.536 99.5355C162.473 98.5979 163 97.3261 163 96C163 94.6739 162.473 93.4021 161.536 92.4645C160.598 91.5268 159.326 91 158 91Z" fill="#36C5F0"/>
</g>
</g>
</g>
</g>
</svg>
